<mxfile host="app.diagrams.net" modified="2021-10-05T11:51:24.325Z" agent="5.0 (Windows NT 10.0; Win64; x64) AppleWebKit/537.36 (KHTML, like Gecko) Chrome/94.0.4606.61 Safari/537.36" etag="K94s2hmHHkjmrHeyFSQ5" version="15.4.1" type="github">
  <diagram id="R2lEEEUBdFMjLlhIrx00" name="Page-1">
    <mxGraphModel dx="1422" dy="786" grid="1" gridSize="10" guides="1" tooltips="1" connect="1" arrows="1" fold="1" page="1" pageScale="1" pageWidth="850" pageHeight="1100" math="0" shadow="0" extFonts="Permanent Marker^https://fonts.googleapis.com/css?family=Permanent+Marker">
      <root>
        <mxCell id="0" />
        <mxCell id="1" parent="0" />
        <mxCell id="1D2xiEHlIqDx1GY5nxCo-1" value="TRACK" style="whiteSpace=wrap;html=1;align=center;" vertex="1" parent="1">
          <mxGeometry x="200" y="330" width="100" height="40" as="geometry" />
        </mxCell>
        <mxCell id="1D2xiEHlIqDx1GY5nxCo-21" style="edgeStyle=none;rounded=0;orthogonalLoop=1;jettySize=auto;html=1;exitX=0;exitY=0;exitDx=0;exitDy=0;entryX=1;entryY=1;entryDx=0;entryDy=0;" edge="1" parent="1" source="1D2xiEHlIqDx1GY5nxCo-2" target="1D2xiEHlIqDx1GY5nxCo-8">
          <mxGeometry relative="1" as="geometry" />
        </mxCell>
        <mxCell id="1D2xiEHlIqDx1GY5nxCo-2" value="SYSTEM" style="whiteSpace=wrap;html=1;align=center;" vertex="1" parent="1">
          <mxGeometry x="520" y="360" width="100" height="40" as="geometry" />
        </mxCell>
        <mxCell id="1D2xiEHlIqDx1GY5nxCo-50" style="edgeStyle=none;rounded=1;orthogonalLoop=1;jettySize=auto;html=1;exitX=0.5;exitY=1;exitDx=0;exitDy=0;entryX=0;entryY=0;entryDx=0;entryDy=0;" edge="1" parent="1" source="1D2xiEHlIqDx1GY5nxCo-3" target="1D2xiEHlIqDx1GY5nxCo-48">
          <mxGeometry relative="1" as="geometry" />
        </mxCell>
        <mxCell id="1D2xiEHlIqDx1GY5nxCo-3" value="ARTIST" style="whiteSpace=wrap;html=1;align=center;" vertex="1" parent="1">
          <mxGeometry x="30" y="330" width="100" height="40" as="geometry" />
        </mxCell>
        <mxCell id="1D2xiEHlIqDx1GY5nxCo-4" value="ALBUM" style="whiteSpace=wrap;html=1;align=center;" vertex="1" parent="1">
          <mxGeometry x="120" y="400" width="100" height="40" as="geometry" />
        </mxCell>
        <mxCell id="1D2xiEHlIqDx1GY5nxCo-5" value="PLAYLIST" style="whiteSpace=wrap;html=1;align=center;" vertex="1" parent="1">
          <mxGeometry x="360" y="410" width="100" height="40" as="geometry" />
        </mxCell>
        <mxCell id="1D2xiEHlIqDx1GY5nxCo-18" style="edgeStyle=none;rounded=0;orthogonalLoop=1;jettySize=auto;html=1;exitX=0;exitY=0.5;exitDx=0;exitDy=0;entryX=1;entryY=0.5;entryDx=0;entryDy=0;" edge="1" parent="1" source="1D2xiEHlIqDx1GY5nxCo-8" target="1D2xiEHlIqDx1GY5nxCo-17">
          <mxGeometry relative="1" as="geometry" />
        </mxCell>
        <mxCell id="1D2xiEHlIqDx1GY5nxCo-36" style="edgeStyle=none;rounded=1;orthogonalLoop=1;jettySize=auto;html=1;exitX=0;exitY=0;exitDx=0;exitDy=0;entryX=0.5;entryY=0;entryDx=0;entryDy=0;" edge="1" parent="1" source="1D2xiEHlIqDx1GY5nxCo-8" target="1D2xiEHlIqDx1GY5nxCo-3">
          <mxGeometry relative="1" as="geometry">
            <Array as="points">
              <mxPoint x="200" y="160" />
              <mxPoint x="80" y="230" />
            </Array>
          </mxGeometry>
        </mxCell>
        <mxCell id="1D2xiEHlIqDx1GY5nxCo-47" style="edgeStyle=none;rounded=1;orthogonalLoop=1;jettySize=auto;html=1;entryX=0.5;entryY=0;entryDx=0;entryDy=0;startArrow=none;" edge="1" parent="1" source="1D2xiEHlIqDx1GY5nxCo-48" target="1D2xiEHlIqDx1GY5nxCo-39">
          <mxGeometry relative="1" as="geometry">
            <mxPoint x="170" y="530" as="sourcePoint" />
          </mxGeometry>
        </mxCell>
        <mxCell id="1D2xiEHlIqDx1GY5nxCo-49" style="edgeStyle=none;rounded=1;orthogonalLoop=1;jettySize=auto;html=1;exitX=0.25;exitY=1;exitDx=0;exitDy=0;entryX=0.5;entryY=0;entryDx=0;entryDy=0;" edge="1" parent="1" source="1D2xiEHlIqDx1GY5nxCo-8" target="1D2xiEHlIqDx1GY5nxCo-48">
          <mxGeometry relative="1" as="geometry" />
        </mxCell>
        <mxCell id="1D2xiEHlIqDx1GY5nxCo-8" value="USER" style="whiteSpace=wrap;html=1;align=center;" vertex="1" parent="1">
          <mxGeometry x="360" y="260" width="100" height="40" as="geometry" />
        </mxCell>
        <mxCell id="1D2xiEHlIqDx1GY5nxCo-9" value="" style="endArrow=none;html=1;rounded=0;entryX=0;entryY=0.5;entryDx=0;entryDy=0;exitX=1;exitY=0.5;exitDx=0;exitDy=0;" edge="1" parent="1" source="1D2xiEHlIqDx1GY5nxCo-3" target="1D2xiEHlIqDx1GY5nxCo-1">
          <mxGeometry relative="1" as="geometry">
            <mxPoint x="40" y="310" as="sourcePoint" />
            <mxPoint x="200" y="310" as="targetPoint" />
          </mxGeometry>
        </mxCell>
        <mxCell id="1D2xiEHlIqDx1GY5nxCo-10" value="" style="endArrow=none;html=1;rounded=0;entryX=0.5;entryY=0;entryDx=0;entryDy=0;exitX=1;exitY=0.5;exitDx=0;exitDy=0;" edge="1" parent="1" source="1D2xiEHlIqDx1GY5nxCo-3" target="1D2xiEHlIqDx1GY5nxCo-4">
          <mxGeometry relative="1" as="geometry">
            <mxPoint x="140" y="400" as="sourcePoint" />
            <mxPoint x="230" y="400" as="targetPoint" />
          </mxGeometry>
        </mxCell>
        <mxCell id="1D2xiEHlIqDx1GY5nxCo-11" value="" style="endArrow=none;html=1;rounded=0;entryX=0.5;entryY=0;entryDx=0;entryDy=0;exitX=0;exitY=0.5;exitDx=0;exitDy=0;" edge="1" parent="1" source="1D2xiEHlIqDx1GY5nxCo-1" target="1D2xiEHlIqDx1GY5nxCo-4">
          <mxGeometry relative="1" as="geometry">
            <mxPoint x="140" y="400" as="sourcePoint" />
            <mxPoint x="170" y="480" as="targetPoint" />
          </mxGeometry>
        </mxCell>
        <mxCell id="1D2xiEHlIqDx1GY5nxCo-14" value="" style="endArrow=none;html=1;rounded=0;entryX=0.5;entryY=0;entryDx=0;entryDy=0;exitX=0.5;exitY=1;exitDx=0;exitDy=0;" edge="1" parent="1" source="1D2xiEHlIqDx1GY5nxCo-8" target="1D2xiEHlIqDx1GY5nxCo-5">
          <mxGeometry relative="1" as="geometry">
            <mxPoint x="420" y="480" as="sourcePoint" />
            <mxPoint x="490" y="540" as="targetPoint" />
          </mxGeometry>
        </mxCell>
        <mxCell id="1D2xiEHlIqDx1GY5nxCo-15" value="" style="endArrow=none;html=1;rounded=0;exitX=0;exitY=0.5;exitDx=0;exitDy=0;" edge="1" parent="1" source="1D2xiEHlIqDx1GY5nxCo-2">
          <mxGeometry relative="1" as="geometry">
            <mxPoint x="420" y="300" as="sourcePoint" />
            <mxPoint x="410" y="380" as="targetPoint" />
          </mxGeometry>
        </mxCell>
        <mxCell id="1D2xiEHlIqDx1GY5nxCo-19" style="edgeStyle=none;rounded=0;orthogonalLoop=1;jettySize=auto;html=1;exitX=0.5;exitY=1;exitDx=0;exitDy=0;entryX=0.5;entryY=0;entryDx=0;entryDy=0;" edge="1" parent="1" source="1D2xiEHlIqDx1GY5nxCo-17" target="1D2xiEHlIqDx1GY5nxCo-1">
          <mxGeometry relative="1" as="geometry" />
        </mxCell>
        <mxCell id="1D2xiEHlIqDx1GY5nxCo-17" value="PLAYBACK" style="shape=ext;margin=3;double=1;whiteSpace=wrap;html=1;align=center;" vertex="1" parent="1">
          <mxGeometry x="190" y="260" width="100" height="40" as="geometry" />
        </mxCell>
        <mxCell id="1D2xiEHlIqDx1GY5nxCo-37" style="edgeStyle=none;rounded=1;orthogonalLoop=1;jettySize=auto;html=1;exitX=0.25;exitY=0;exitDx=0;exitDy=0;entryX=0.75;entryY=0;entryDx=0;entryDy=0;" edge="1" parent="1" source="1D2xiEHlIqDx1GY5nxCo-8" target="1D2xiEHlIqDx1GY5nxCo-8">
          <mxGeometry relative="1" as="geometry">
            <Array as="points">
              <mxPoint x="400" y="210" />
              <mxPoint x="430" y="210" />
            </Array>
          </mxGeometry>
        </mxCell>
        <mxCell id="1D2xiEHlIqDx1GY5nxCo-45" style="edgeStyle=none;rounded=1;orthogonalLoop=1;jettySize=auto;html=1;exitX=1;exitY=0.5;exitDx=0;exitDy=0;entryX=0;entryY=0.5;entryDx=0;entryDy=0;" edge="1" parent="1" source="1D2xiEHlIqDx1GY5nxCo-38" target="1D2xiEHlIqDx1GY5nxCo-46">
          <mxGeometry relative="1" as="geometry">
            <mxPoint x="365" y="540" as="targetPoint" />
          </mxGeometry>
        </mxCell>
        <mxCell id="1D2xiEHlIqDx1GY5nxCo-38" value="SHOW" style="whiteSpace=wrap;html=1;align=center;" vertex="1" parent="1">
          <mxGeometry x="280" y="590" width="100" height="40" as="geometry" />
        </mxCell>
        <mxCell id="1D2xiEHlIqDx1GY5nxCo-44" style="edgeStyle=none;rounded=1;orthogonalLoop=1;jettySize=auto;html=1;exitX=1;exitY=0.5;exitDx=0;exitDy=0;entryX=0;entryY=0.5;entryDx=0;entryDy=0;" edge="1" parent="1" source="1D2xiEHlIqDx1GY5nxCo-39" target="1D2xiEHlIqDx1GY5nxCo-38">
          <mxGeometry relative="1" as="geometry" />
        </mxCell>
        <mxCell id="1D2xiEHlIqDx1GY5nxCo-39" value="POSCAST" style="whiteSpace=wrap;html=1;align=center;" vertex="1" parent="1">
          <mxGeometry x="120" y="590" width="100" height="40" as="geometry" />
        </mxCell>
        <mxCell id="1D2xiEHlIqDx1GY5nxCo-46" value="EPISODE" style="shape=ext;margin=3;double=1;whiteSpace=wrap;html=1;align=center;" vertex="1" parent="1">
          <mxGeometry x="425" y="590" width="100" height="40" as="geometry" />
        </mxCell>
        <mxCell id="1D2xiEHlIqDx1GY5nxCo-48" value="" style="ellipse;whiteSpace=wrap;html=1;aspect=fixed;" vertex="1" parent="1">
          <mxGeometry x="160" y="530" width="20" height="20" as="geometry" />
        </mxCell>
        <mxCell id="1D2xiEHlIqDx1GY5nxCo-51" value="" style="edgeStyle=none;rounded=1;orthogonalLoop=1;jettySize=auto;html=1;entryX=0.5;entryY=0;entryDx=0;entryDy=0;endArrow=none;" edge="1" parent="1" target="1D2xiEHlIqDx1GY5nxCo-48">
          <mxGeometry relative="1" as="geometry">
            <mxPoint x="170" y="530" as="sourcePoint" />
            <mxPoint x="170" y="570" as="targetPoint" />
          </mxGeometry>
        </mxCell>
      </root>
    </mxGraphModel>
  </diagram>
</mxfile>
